<?xml version="1.0" encoding="UTF-8" standalone="no"?>
<!-- Created with Inkscape (http://www.inkscape.org/) -->

<svg
   xmlns:dc="http://purl.org/dc/elements/1.1/"
   xmlns:cc="http://creativecommons.org/ns#"
   xmlns:rdf="http://www.w3.org/1999/02/22-rdf-syntax-ns#"
   xmlns:svg="http://www.w3.org/2000/svg"
   xmlns="http://www.w3.org/2000/svg"
   xmlns:sodipodi="http://sodipodi.sourceforge.net/DTD/sodipodi-0.dtd"
   xmlns:inkscape="http://www.inkscape.org/namespaces/inkscape"
   width="148mm"
   height="210mm"
   viewBox="0 0 148 210"
   version="1.1"
   id="SVGRoot"
   inkscape:version="0.92.1 r15371"
   sodipodi:docname="dual.svg">
  <sodipodi:namedview
     id="base"
     pagecolor="#ffffff"
     bordercolor="#666666"
     borderopacity="1.0"
     inkscape:pageopacity="0.0"
     inkscape:pageshadow="2"
     inkscape:zoom="2.0022523"
     inkscape:cx="279.68504"
     inkscape:cy="383.1592"
     inkscape:document-units="mm"
     inkscape:current-layer="layer1"
     showgrid="false"
     inkscape:window-width="1280"
     inkscape:window-height="984"
     inkscape:window-x="0"
     inkscape:window-y="0"
     inkscape:window-maximized="1"
     inkscape:measure-start="0,0"
     inkscape:measure-end="0,0"
     inkscape:snap-object-midpoints="true"
     inkscape:snap-center="true" />
  <defs
     id="defs10">
    <clipPath
       id="cp0">
      <path
         id="path107"
         d="M 123,483 H 5142 V 1905 H 123 z   M 4062,767 4069,796 4148,770 4145,757z"
         clip-rule="evenodd" />
    </clipPath>
    <clipPath
       id="cp1">
      <path
         id="path152"
         d="M 123,483 H 5142 V 1905 H 123 z   M 4062,767 4069,796 4148,770 4145,757z"
         clip-rule="evenodd" />
    </clipPath>
    <defs
       id="defs110">
      <clipPath
         id="clipPath210">
        <path
           style="clip-rule:evenodd"
           inkscape:connector-curvature="0"
           d="M 123,483 H 5142 V 1905 H 123 Z m 3939,284 7,29 79,-26 -3,-13 z"
           id="path208" />
      </clipPath>
    </defs>
    <defs
       id="defs155">
      <clipPath
         id="clipPath235">
        <path
           style="clip-rule:evenodd"
           inkscape:connector-curvature="0"
           d="M 123,483 H 5142 V 1905 H 123 Z m 3939,284 7,29 79,-26 -3,-13 z"
           id="path233" />
      </clipPath>
    </defs>
    <clipPath
       id="cp0-9">
      <path
         id="path492"
         d="M 120,8 H 5277 V 4110 H 120 z   M 3060,2681 3032,2669 3006,2748 3018,2754z   M 3150,2404 3178,2416 3204,2337 3192,2331z"
         clip-rule="evenodd" />
    </clipPath>
    <clipPath
       id="cp1-2">
      <path
         id="path503"
         d="M 120,8 H 5277 V 4110 H 120 z   M 2964,1642 2987,1622 2926,1565 2915,1574z   M 3246,1913 3223,1933 3284,1990 3295,1981z"
         clip-rule="evenodd" />
    </clipPath>
    <polygon
       id="p0"
       points=" 1215,540 1218,537 1224,531 1230,525 1237,518 1246,509 1260,495 1273,482 1280,477  1283,476 1285,475 1292,468 1305,450 1313,436 1320,425 1323,416 1324,410 1324,405  1324,400 1325,394 1330,385 1338,374 1350,360 1364,348 1376,340 1385,335 1393,334  1399,334 1405,334 1411,333 1420,330 1430,323 1440,315 1448,305 1448,298 1442,294  1433,293 1424,291 1420,287 1424,280 1440,270 1457,263 1474,257 1490,253 1504,252  1515,251 1526,251 1537,251 1549,250 1564,248 1581,243 1600,235 1620,225 1639,211  1648,200 1649,192 1644,187 1635,184 1627,180 1622,175 1625,166 1639,152 1665,135  1686,124 1706,114 1724,105 1738,98 1749,93 1756,89 1762,85 1766,83 1771,80 1778,77  1789,73 1804,69 1826,64 1855,58 1892,51 1935,45 1971,41 2007,38 2040,35 2070,33  2096,30 2119,29 2139,27 2156,25 2172,24 2186,22 2201,21 2215,21 2231,20 2249,20  2268,21 2290,23 2314,26 2338,31 2363,37 2385,45 2409,59 2422,74 2426,89 2423,101  2414,112 2402,122 2389,131 2375,141 2361,151 2350,162 2341,176 2336,191 2336,208  2340,225 2349,242 2360,253 2371,260 2380,263 2389,263 2396,262 2404,261 2413,260  2425,261 2439,263 2456,266 2475,270 2500,274 2514,275 2520,273 2520,270 2520,267  2526,265 2540,266 2565,270 2587,275 2605,279 2617,282 2624,284 2629,285 2634,286  2641,289 2654,294 2674,303 2700,315 2722,326 2740,336 2754,343 2764,348 2770,351  2775,353 2780,354 2786,358 2794,364 2805,373 2819,387 2835,405 2849,424 2859,440  2867,452 2873,460 2877,465 2880,469 2883,473 2885,478 2886,487 2887,500 2885,518  2880,540 2871,562 2859,580 2847,594 2836,604 2826,610 2816,615 2806,620 2796,626  2784,634 2771,645 2758,659 2745,675 2733,694 2730,704 2734,708 2741,709 2749,709  2753,710 2753,714 2745,720 2732,724 2720,725 2709,723 2700,720 2691,717 2680,715  2668,716 2655,720 2652,721 2650,723 2649,725 2648,726 2648,728 2649,730 2651,731  2653,733 2656,734 2660,735 2664,737 2669,738 2673,739 2679,740 2684,741 2689,743  2694,744 2699,745 2703,746 2707,747 2710,748 2712,750 2714,751 2714,752 2713,754  2711,755 2706,757 2700,759 2692,760 2682,762 2669,764 2655,765 2631,767 2605,768  2578,768 2552,768 2527,766 2505,764 2484,761 2464,758 2446,754 2428,750 2411,746  2394,742 2377,739 2358,736 2338,734 2317,733 2294,733 2268,735 2242,739 2214,745  2186,754 2160,765 2133,781 2112,799 2098,817 2090,833 2087,849 2088,863 2091,876  2097,888 2104,900 2111,912 2118,924 2124,937 2128,951 2130,967 2130,983 2127,1001  2122,1019 2115,1035 2109,1046 2103,1055 2097,1062 2091,1067 2086,1070 2082,1072  2078,1072 2075,1072 2072,1072 2069,1070 2066,1069 2064,1067 2061,1065 2058,1063  2055,1061 2051,1058 2048,1055 2043,1053 2039,1049 2034,1045 2029,1041 2025,1035  2018,1020 2015,1006 2015,994 2018,986 2021,979 2025,971 2028,961 2029,947 2028,926  2025,900 2022,883 2020,868 2019,856 2020,845 2023,837 2027,831 2031,826 2036,821  2041,817 2044,812 2045,807 2043,801 2036,793 2024,784 2005,774 1980,765 1956,759  1931,754 1906,751 1883,750 1862,749 1842,750 1825,751 1810,753 1795,755 1781,758  1767,760 1753,762 1737,765 1719,767 1700,768 1678,769 1654,769 1628,768 1601,767  1575,765 1533,760 1509,755 1502,750 1506,746 1515,742 1525,739 1531,735 1527,730  1512,725 1485,720 1462,717 1439,716 1420,716 1403,717 1390,719 1379,721 1369,724  1359,726 1348,729 1335,730 1319,730 1301,729 1280,725 1260,720 1243,713 1230,705  1222,699 1218,693 1216,687 1217,683 1219,679 1221,675 1223,670 1223,664 1223,657  1221,649 1218,640 1215,630 1210,612 1210,605 1211,604 1213,603 1215,598 1215,585  1215,572 1213,565 1211,562 1210,560 1210,553 1215,540 1224,526 1233,517 1241,510  1249,504 1256,498 1260,495 1256,499 1247,508 1237,518 1228,527 1219,536" />
    <pattern
       height="402"
       width="402"
       y="0"
       x="0"
       patternUnits="userSpaceOnUse"
       id="tile0">
      <g
         id="g519"
         fill="none"
         stroke="#ffd600"
         stroke-width="7.5">
        <path
           id="path517"
           d="M30,-1 V403 M164,-1 V403 M298,-1 V403 M30,164 l134,67 M164,30 l134,67 M298,298 l120,60 M30,365 l-40,-20" />
      </g>
    </pattern>
    <clipPath
       id="cp2">
      <path
         id="path614"
         d="M 120,8 H 5277 V 4110 H 120 z   M 4288,2937 4299,2965 4374,2929 4369,2916z   M 3246,1913 3223,1933 3284,1990 3295,1981z"
         clip-rule="evenodd" />
    </clipPath>
    <clipPath
       id="cp3">
      <path
         id="path681"
         d="M 120,8 H 5277 V 4110 H 120 z   M 4288,2937 4299,2965 4374,2929 4369,2916z   M 3246,1913 3223,1933 3284,1990 3295,1981z"
         clip-rule="evenodd" />
    </clipPath>
    <defs
       id="defs495">
      <clipPath
         id="clipPath737">
        <path
           style="clip-rule:evenodd"
           inkscape:connector-curvature="0"
           d="M 120,8 H 5277 V 4110 H 120 Z m 2940,2673 -28,-12 -26,79 12,6 z m 90,-277 28,12 26,-79 -12,-6 z"
           id="path735" />
      </clipPath>
    </defs>
    <defs
       id="defs506">
      <clipPath
         id="clipPath745">
        <path
           style="clip-rule:evenodd"
           inkscape:connector-curvature="0"
           d="M 120,8 H 5277 V 4110 H 120 Z m 2844,1634 23,-20 -61,-57 -11,9 z m 282,271 -23,20 61,57 11,-9 z"
           id="path743" />
      </clipPath>
    </defs>
    <defs
       id="defs522">
      <polygon
         points="1237,518 1246,509 1260,495 1273,482 1280,477 1283,476 1285,475 1292,468 1305,450 1313,436 1320,425 1323,416 1324,410 1324,405 1324,400 1325,394 1330,385 1338,374 1350,360 1364,348 1376,340 1385,335 1393,334 1399,334 1405,334 1411,333 1420,330 1430,323 1440,315 1448,305 1448,298 1442,294 1433,293 1424,291 1420,287 1424,280 1440,270 1457,263 1474,257 1490,253 1504,252 1515,251 1526,251 1537,251 1549,250 1564,248 1581,243 1600,235 1620,225 1639,211 1648,200 1649,192 1644,187 1635,184 1627,180 1622,175 1625,166 1639,152 1665,135 1686,124 1706,114 1724,105 1738,98 1749,93 1756,89 1762,85 1766,83 1771,80 1778,77 1789,73 1804,69 1826,64 1855,58 1892,51 1935,45 1971,41 2007,38 2040,35 2070,33 2096,30 2119,29 2139,27 2156,25 2172,24 2186,22 2201,21 2215,21 2231,20 2249,20 2268,21 2290,23 2314,26 2338,31 2363,37 2385,45 2409,59 2422,74 2426,89 2423,101 2414,112 2402,122 2389,131 2375,141 2361,151 2350,162 2341,176 2336,191 2336,208 2340,225 2349,242 2360,253 2371,260 2380,263 2389,263 2396,262 2404,261 2413,260 2425,261 2439,263 2456,266 2475,270 2500,274 2514,275 2520,273 2520,270 2520,267 2526,265 2540,266 2565,270 2587,275 2605,279 2617,282 2624,284 2629,285 2634,286 2641,289 2654,294 2674,303 2700,315 2722,326 2740,336 2754,343 2764,348 2770,351 2775,353 2780,354 2786,358 2794,364 2805,373 2819,387 2835,405 2849,424 2859,440 2867,452 2873,460 2877,465 2880,469 2883,473 2885,478 2886,487 2887,500 2885,518 2880,540 2871,562 2859,580 2847,594 2836,604 2826,610 2816,615 2806,620 2796,626 2784,634 2771,645 2758,659 2745,675 2733,694 2730,704 2734,708 2741,709 2749,709 2753,710 2753,714 2745,720 2732,724 2720,725 2709,723 2700,720 2691,717 2680,715 2668,716 2655,720 2652,721 2650,723 2649,725 2648,726 2648,728 2649,730 2651,731 2653,733 2656,734 2660,735 2664,737 2669,738 2673,739 2679,740 2684,741 2689,743 2694,744 2699,745 2703,746 2707,747 2710,748 2712,750 2714,751 2714,752 2713,754 2711,755 2706,757 2700,759 2692,760 2682,762 2669,764 2655,765 2631,767 2605,768 2578,768 2552,768 2527,766 2505,764 2484,761 2464,758 2446,754 2428,750 2411,746 2394,742 2377,739 2358,736 2338,734 2317,733 2294,733 2268,735 2242,739 2214,745 2186,754 2160,765 2133,781 2112,799 2098,817 2090,833 2087,849 2088,863 2091,876 2097,888 2104,900 2111,912 2118,924 2124,937 2128,951 2130,967 2130,983 2127,1001 2122,1019 2115,1035 2109,1046 2103,1055 2097,1062 2091,1067 2086,1070 2082,1072 2078,1072 2075,1072 2072,1072 2069,1070 2066,1069 2064,1067 2061,1065 2058,1063 2055,1061 2051,1058 2048,1055 2043,1053 2039,1049 2034,1045 2029,1041 2025,1035 2018,1020 2015,1006 2015,994 2018,986 2021,979 2025,971 2028,961 2029,947 2028,926 2025,900 2022,883 2020,868 2019,856 2020,845 2023,837 2027,831 2031,826 2036,821 2041,817 2044,812 2045,807 2043,801 2036,793 2024,784 2005,774 1980,765 1956,759 1931,754 1906,751 1883,750 1862,749 1842,750 1825,751 1810,753 1795,755 1781,758 1767,760 1753,762 1737,765 1719,767 1700,768 1678,769 1654,769 1628,768 1601,767 1575,765 1533,760 1509,755 1502,750 1506,746 1515,742 1525,739 1531,735 1527,730 1512,725 1485,720 1462,717 1439,716 1420,716 1403,717 1390,719 1379,721 1369,724 1359,726 1348,729 1335,730 1319,730 1301,729 1280,725 1260,720 1243,713 1230,705 1222,699 1218,693 1216,687 1217,683 1219,679 1221,675 1223,670 1223,664 1223,657 1221,649 1218,640 1215,630 1210,612 1210,605 1211,604 1213,603 1215,598 1215,585 1215,572 1213,565 1211,562 1210,560 1210,553 1215,540 1224,526 1233,517 1241,510 1249,504 1256,498 1260,495 1256,499 1247,508 1237,518 1228,527 1219,536 1215,540 1218,537 1224,531 1230,525 "
         id="polygon752" />
      <pattern
         id="pattern758"
         patternUnits="userSpaceOnUse"
         x="0"
         y="0"
         width="402"
         height="402">
        <g
           stroke-width="7.5"
           stroke="#ffd600"
           fill="none"
           id="g756">
          <path
             d="M30,-1 V403 M164,-1 V403 M298,-1 V403 M30,164 l134,67 M164,30 l134,67 M298,298 l120,60 M30,365 l-40,-20"
             id="path754" />
        </g>
      </pattern>
    </defs>
    <defs
       id="defs617">
      <clipPath
         id="clipPath808">
        <path
           style="clip-rule:evenodd"
           inkscape:connector-curvature="0"
           d="M 120,8 H 5277 V 4110 H 120 Z m 4168,2929 11,28 75,-36 -5,-13 z m -1042,-1024 -23,20 61,57 11,-9 z"
           id="path806" />
      </clipPath>
    </defs>
    <defs
       id="defs684">
      <clipPath
         id="clipPath844">
        <path
           style="clip-rule:evenodd"
           inkscape:connector-curvature="0"
           d="M 120,8 H 5277 V 4110 H 120 Z m 4168,2929 11,28 75,-36 -5,-13 z m -1042,-1024 -23,20 61,57 11,-9 z"
           id="path842" />
      </clipPath>
    </defs>
    <clipPath
       id="cp0-8">
      <path
         id="path1253"
         d="M 378,618 H 2647 V 2667 H 378 z   M 1410,1949 1380,1949 1388,2032 1402,2032z   M 1380,784 1410,784 1402,713 1388,713z"
         clip-rule="evenodd" />
    </clipPath>
    <clipPath
       id="cp1-7">
      <path
         id="path1270"
         d="M 378,618 H 2647 V 2667 H 378 z   M 420,2579 390,2579 398,2662 412,2662z   M 390,784 420,784 412,713 398,713z"
         clip-rule="evenodd" />
    </clipPath>
    <clipPath
       id="cp2-1">
      <path
         id="path1281"
         d="M 378,618 H 2647 V 2667 H 378 z   M 1859,888 1825,859 1763,955 1774,964z   M 390,784 420,784 412,713 398,713z"
         clip-rule="evenodd" />
    </clipPath>
    <defs
       id="defs1256">
      <clipPath
         id="clipPath1358">
        <path
           style="clip-rule:evenodd"
           inkscape:connector-curvature="0"
           d="M 378,618 H 2647 V 2667 H 378 Z m 1032,1331 h -30 l 8,83 h 14 z M 1380,784 h 30 l -8,-71 h -14 z"
           id="path1356" />
      </clipPath>
    </defs>
    <defs
       id="defs1273">
      <clipPath
         id="clipPath1369">
        <path
           style="clip-rule:evenodd"
           inkscape:connector-curvature="0"
           d="M 378,618 H 2647 V 2667 H 378 Z m 42,1961 h -30 l 8,83 h 14 z M 390,784 h 30 l -8,-71 h -14 z"
           id="path1367" />
      </clipPath>
    </defs>
    <defs
       id="defs1284">
      <clipPath
         id="clipPath1377">
        <path
           style="clip-rule:evenodd"
           inkscape:connector-curvature="0"
           d="M 378,618 H 2647 V 2667 H 378 Z m 1481,270 -34,-29 -62,96 11,9 z M 390,784 h 30 l -8,-71 h -14 z"
           id="path1375" />
      </clipPath>
    </defs>
  </defs>
  <metadata
     id="metadata13">
    <rdf:RDF>
      <cc:Work
         rdf:about="">
        <dc:format>image/svg+xml</dc:format>
        <dc:type
           rdf:resource="http://purl.org/dc/dcmitype/StillImage" />
        <dc:title></dc:title>
      </cc:Work>
    </rdf:RDF>
  </metadata>
  <g
     id="layer1"
     inkscape:groupmode="layer"
     inkscape:label="Layer 1">
    <polyline
       style="fill:#8f008f;stroke:#8f008f;stroke-width:8px;stroke-miterlimit:8"
       points=""
       stroke-miterlimit="8"
       id="polyline159"
       transform="matrix(0.02228144,0,0,0.02228144,8.4011446,43.811523)" />
    <polyline
       style="fill:#8f008f;stroke:#8f008f;stroke-width:8px;stroke-miterlimit:8"
       points=""
       stroke-miterlimit="8"
       id="polyline688"
       transform="matrix(0.02223246,0,0,0.02223246,11.408567,57.986033)" />
    <rect
       style="fill:#d8d8d8;stroke:#ffffff;stroke-width:0.17814463px;stroke-dasharray:0.8907232, 0.8907232"
       x="50.032524"
       y="56.879997"
       width="67.13826"
       height="54.111435"
       id="rect1566" />
    <polyline
       style="fill:none;stroke:#000000;stroke-width:8px"
       points=" 135,360 1215,360"
       id="polyline1568"
       transform="matrix(0.02226808,0,0,0.02226808,22.976808,55.877933)" />
    <polyline
       style="fill:none;stroke:#000000;stroke-width:8px"
       points=" 135,405 1215,405"
       id="polyline1570"
       transform="matrix(0.02226808,0,0,0.02226808,22.976808,55.877933)" />
    <polyline
       style="fill:none;stroke:#000000;stroke-width:8px"
       points=" 135,450 1215,450"
       id="polyline1572"
       transform="matrix(0.02226808,0,0,0.02226808,22.976808,55.877933)" />
    <polyline
       style="fill:none;stroke:#000000;stroke-width:8px"
       points=" 585,900 1215,900"
       id="polyline1574"
       transform="matrix(0.02226808,0,0,0.02226808,22.976808,55.877933)" />
    <polyline
       style="fill:none;stroke:#000000;stroke-width:8px"
       points=" 585,810 1215,810"
       id="polyline1576"
       transform="matrix(0.02226808,0,0,0.02226808,22.976808,55.877933)" />
    <polyline
       style="fill:none;stroke:#000000;stroke-width:8px"
       points=" 585,855 1215,855"
       id="polyline1578"
       transform="matrix(0.02226808,0,0,0.02226808,22.976808,55.877933)" />
    <polyline
       style="fill:none;stroke:#000000;stroke-width:8px"
       points=" 135,2205 1215,2205"
       id="polyline1580"
       transform="matrix(0.02226808,0,0,0.02226808,22.976808,55.877933)" />
    <polyline
       style="fill:none;stroke:#000000;stroke-width:8px"
       points=" 135,2250 1215,2250"
       id="polyline1582"
       transform="matrix(0.02226808,0,0,0.02226808,22.976808,55.877933)" />
    <polyline
       style="fill:none;stroke:#000000;stroke-width:8px"
       points=" 135,2295 1215,2295"
       id="polyline1584"
       transform="matrix(0.02226808,0,0,0.02226808,22.976808,55.877933)" />
    <polyline
       style="fill:none;stroke:#ff0000;stroke-width:8px"
       points=" 900,1035 1305,990"
       id="polyline1586"
       transform="matrix(0.02226808,0,0,0.02226808,22.976808,55.877933)" />
    <polyline
       style="fill:none;stroke:#ff0000;stroke-width:8px"
       points=" 900,215 1305,260"
       id="polyline1588"
       transform="matrix(0.02226808,0,0,0.02226808,22.976808,55.877933)" />
    <polyline
       style="fill:none;stroke:#ff0000;stroke-width:8px"
       points=" 902,2045 1307,2000"
       id="polyline1590"
       transform="matrix(0.02226808,0,0,0.02226808,22.976808,55.877933)" />
    <rect
       style="fill:#ffffff;stroke:#ff0000;stroke-width:0.17814463px"
       x="55.042843"
       y="58.884125"
       width="23.047462"
       height="50.10318"
       id="rect1592" />
    <polyline
       style="fill:none;stroke:#000000;stroke-width:8px"
       points=" 2475,990 2880,990"
       id="polyline1594"
       transform="matrix(0.02226808,0,0,0.02226808,22.976808,55.877933)" />
    <polyline
       style="fill:none;stroke:#000000;stroke-width:8px"
       points=" 2880,675 3105,675"
       id="polyline1596"
       transform="matrix(0.02226808,0,0,0.02226808,22.976808,55.877933)" />
    <polyline
       style="fill:none;stroke:#000000;stroke-width:8px"
       points=" 2880,2340 2880,585"
       id="polyline1598"
       transform="matrix(0.02226808,0,0,0.02226808,22.976808,55.877933)" />
    <polyline
       style="fill:none;stroke:#000000;stroke-width:8px"
       points=" 2880,1980 3150,1980"
       id="polyline1600"
       transform="matrix(0.02226808,0,0,0.02226808,22.976808,55.877933)" />
    <polyline
       style="fill:none;stroke:#000000;stroke-width:8px"
       points=" 2880,2205 3150,2205"
       id="polyline1602"
       transform="matrix(0.02226808,0,0,0.02226808,22.976808,55.877933)" />
    <polyline
       style="fill:none;stroke:#000000;stroke-width:8px"
       points=" 2880,1755 3150,1755"
       id="polyline1604"
       transform="matrix(0.02226808,0,0,0.02226808,22.976808,55.877933)" />
    <text
       style="font-style:normal;font-weight:normal;font-size:2.67216969px;font-family:'Helvetica Narrow';text-anchor:start;fill:#ff0000;stroke-width:0.02226808"
       xml:space="preserve"
       x="79.092369"
       y="76.921272"
       font-style="normal"
       font-weight="normal"
       font-size="120"
       id="text1606">port</text>
    <text
       style="font-style:normal;font-weight:normal;font-size:2.13773561px;font-family:'Helvetica Narrow';text-anchor:start;fill:#ff0000;stroke-width:0.02226808"
       xml:space="preserve"
       x="79.092369"
       y="81.597565"
       font-style="normal"
       font-weight="normal"
       font-size="96"
       id="text1608">3493</text>
    <text
       style="font-style:normal;font-weight:bold;font-size:3.20660353px;font-family:'Helvetica Narrow';text-anchor:start;fill:#ff0000;stroke-width:0.02226808"
       xml:space="preserve"
       x="69.071732"
       y="62.89238"
       font-style="normal"
       font-weight="bold"
       font-size="144"
       id="text1610">upsd</text>
    <polygon
       style="fill:#cccccc;stroke:#000000;stroke-width:8px"
       points="900,495 900,45 450,45 450,495 405,495 405,540 945,540 945,495 "
       id="polygon1612"
       transform="matrix(0.02226808,0,0,0.02226808,22.976808,55.877933)" />
    <polygon
       style="fill:#cccccc;stroke:#000000;stroke-width:8px"
       points="900,1125 900,675 450,675 450,1125 405,1125 405,1170 945,1170 945,1125 "
       id="polygon1614"
       transform="matrix(0.02226808,0,0,0.02226808,22.976808,55.877933)" />
    <polygon
       style="fill:#cccccc;stroke:#000000;stroke-width:8px"
       points="900,2385 900,1935 450,1935 450,2385 405,2385 405,2430 945,2430 945,2385 "
       id="polygon1616"
       transform="matrix(0.02226808,0,0,0.02226808,22.976808,55.877933)" />
    <rect
       style="fill:#ffffff;stroke:#ff0000;stroke-width:0.17814463px"
       x="93.121262"
       y="102.97492"
       width="15.030954"
       height="4.0082545"
       rx="2.3381484"
       id="rect1618" />
    <rect
       style="fill:#ffffff;stroke:#ff0000;stroke-width:0.17814463px"
       x="93.121262"
       y="97.964607"
       width="12.024763"
       height="4.0082545"
       rx="2.3381484"
       id="rect1620" />
    <rect
       style="fill:#ffffff;stroke:#ff0000;stroke-width:0.17814463px"
       x="93.121262"
       y="92.954285"
       width="10.020636"
       height="4.0082545"
       rx="2.3381484"
       id="rect1622" />
    <polygon
       style="fill:#cccccc;stroke:#000000;stroke-width:8px"
       points="900,1755 900,1305 450,1305 450,1755 405,1755 405,1800 945,1800 945,1755 "
       id="polygon1624"
       transform="matrix(0.02226808,0,0,0.02226808,22.976808,55.877933)" />
    <rect
       style="fill:#ffffff;stroke:#ff0000;stroke-width:0.17814463px"
       x="52.036652"
       y="96.96254"
       width="13.026827"
       height="7.0144453"
       id="rect1626" />
    <rect
       style="fill:#ffffff;stroke:#ff0000;stroke-width:0.17814463px"
       x="52.036652"
       y="83.935715"
       width="13.026827"
       height="7.0144453"
       id="rect1628" />
    <rect
       style="fill:#ffffff;stroke:#ff0000;stroke-width:0.17814463px"
       x="52.036652"
       y="71.91095"
       width="13.026827"
       height="7.0144453"
       id="rect1630" />
    <rect
       style="fill:#ffffff;stroke:#ff0000;stroke-width:0.17814463px"
       x="52.036652"
       y="59.886189"
       width="13.026827"
       height="7.0144453"
       id="rect1632" />
    <rect
       style="fill:#ffffff;stroke:#008f00;stroke-width:0.17814463px"
       x="92.119194"
       y="58.884125"
       width="23.047462"
       height="32.066036"
       id="rect1634" />
    <circle
       style="fill:#00d100;stroke:#008f00;stroke-width:0.17814463px"
       cx="41.013954"
       cy="57.882061"
       r="0.51216584"
       id="circle1636" />
    <circle
       style="fill:#ff0000;stroke:#ff0000;stroke-width:0.17814463px"
       cx="41.013954"
       cy="71.91095"
       r="0.51216584"
       id="circle1638" />
    <circle
       style="fill:#00d100;stroke:#008f00;stroke-width:0.17814463px"
       cx="41.013954"
       cy="99.968735"
       r="0.51216584"
       id="circle1640" />
    <polyline
       style="fill:none;stroke:#000000;stroke-width:8px;stroke-linejoin:bevel"
       points=" 180,270 181,269 184,262 191,250 200,238 211,229 225,225 238,228 245,234 248,240  250,247 257,256 270,270 283,284 290,293 293,300 295,306 302,312 315,315 329,311  340,302 349,290 356,278 359,271 360,270"
       id="polyline1642"
       transform="matrix(0.02226808,0,0,0.02226808,22.976808,55.877933)" />
    <polyline
       style="fill:none;stroke:#000000;stroke-width:8px;stroke-linejoin:bevel"
       points=" 180,2115 181,2114 184,2107 191,2095 200,2083 211,2074 225,2070 238,2073 245,2079  248,2085 250,2092 257,2101 270,2115 283,2129 290,2138 293,2145 295,2151 302,2157  315,2160 329,2156 340,2147 349,2135 356,2123 359,2116 360,2115"
       id="polyline1644"
       transform="matrix(0.02226808,0,0,0.02226808,22.976808,55.877933)" />
    <text
       style="font-style:normal;font-weight:bold;font-size:2.13773561px;font-family:'Helvetica Narrow';text-anchor:start;fill:#000000;stroke-width:0.02226808"
       xml:space="preserve"
       x="33.999508"
       y="61.890316"
       font-style="normal"
       font-weight="bold"
       font-size="96"
       id="text1646">UPS-1</text>
    <text
       style="font-style:normal;font-weight:normal;font-size:2.67216969px;font-family:'Helvetica Narrow';text-anchor:start;fill:#000000;stroke-width:0.02226808"
       xml:space="preserve"
       x="33.999508"
       y="66.900635"
       font-style="normal"
       font-weight="normal"
       font-size="120"
       id="text1648">47014</text>
    <text
       style="font-style:normal;font-weight:bold;font-size:2.13773561px;font-family:'Helvetica Narrow';text-anchor:start;fill:#000000;stroke-width:0.02226808"
       xml:space="preserve"
       x="33.999508"
       y="75.919205"
       font-style="normal"
       font-weight="bold"
       font-size="96"
       id="text1650">UPS-2</text>
    <text
       style="font-style:normal;font-weight:normal;font-size:2.67216969px;font-family:'Helvetica Narrow';text-anchor:start;fill:#000000;stroke-width:0.02226808"
       xml:space="preserve"
       x="33.999508"
       y="80.92952"
       font-style="normal"
       font-weight="normal"
       font-size="120"
       id="text1652">47015</text>
    <text
       style="font-style:normal;font-weight:bold;font-size:2.13773561px;font-family:'Helvetica Narrow';text-anchor:start;fill:#000000;stroke-width:0.02226808"
       xml:space="preserve"
       x="33.999508"
       y="103.97698"
       font-style="normal"
       font-weight="bold"
       font-size="96"
       id="text1654">UPS-4</text>
    <text
       style="font-style:normal;font-weight:normal;font-size:2.67216969px;font-family:'Helvetica Narrow';text-anchor:start;fill:#000000;stroke-width:0.02226808"
       xml:space="preserve"
       x="33.999508"
       y="108.9873"
       font-style="normal"
       font-weight="normal"
       font-size="120"
       id="text1656">47025</text>
    <text
       style="font-style:normal;font-weight:bold;font-size:2.67216969px;font-family:'Helvetica Narrow';text-anchor:start;fill:#ff0000;stroke-width:0.02226808"
       xml:space="preserve"
       x="94.123322"
       y="105.98111"
       font-style="normal"
       font-weight="bold"
       font-size="120"
       id="text1658">upscom</text>
    <text
       style="font-style:normal;font-weight:bold;font-size:2.67216969px;font-family:'Helvetica Narrow';text-anchor:start;fill:#ff0000;stroke-width:0.02226808"
       xml:space="preserve"
       x="94.123322"
       y="100.97079"
       font-style="normal"
       font-weight="bold"
       font-size="120"
       id="text1660">upsrw</text>
    <text
       style="font-style:normal;font-weight:bold;font-size:2.67216969px;font-family:'Helvetica Narrow';text-anchor:start;fill:#ff0000;stroke-width:0.02226808"
       xml:space="preserve"
       x="94.123322"
       y="95.96048"
       font-style="normal"
       font-weight="bold"
       font-size="120"
       id="text1662">upsc</text>
    <text
       style="font-style:normal;font-weight:bold;font-size:2.13773561px;font-family:'Helvetica Narrow';text-anchor:start;fill:#000000;stroke-width:0.02226808"
       xml:space="preserve"
       x="33.999508"
       y="89.948097"
       font-style="normal"
       font-weight="bold"
       font-size="96"
       id="text1664">UPS-3</text>
    <text
       style="font-style:normal;font-weight:normal;font-size:2.67216969px;font-family:'Helvetica Narrow';text-anchor:start;fill:#000000;stroke-width:0.02226808"
       xml:space="preserve"
       x="33.999508"
       y="94.958412"
       font-style="normal"
       font-weight="normal"
       font-size="120"
       id="text1666">47024</text>
    <text
       style="font-style:normal;font-weight:bold;font-size:2.13773561px;font-family:'Helvetica Narrow';text-anchor:start;fill:#ff0000;stroke-width:0.02226808"
       xml:space="preserve"
       x="53.038715"
       y="99.968735"
       font-style="normal"
       font-weight="bold"
       font-size="96"
       id="text1668">upsdrvctl</text>
    <text
       style="font-style:normal;font-weight:bold;font-size:1.87051868px;font-family:'Helvetica Narrow';text-anchor:start;fill:#ff0000;stroke-width:0.02226808"
       xml:space="preserve"
       x="53.038715"
       y="102.97492"
       font-style="normal"
       font-weight="bold"
       font-size="84"
       id="text1670">+ driver</text>
    <text
       style="font-style:normal;font-weight:bold;font-size:2.13773561px;font-family:'Helvetica Narrow';text-anchor:start;fill:#ff0000;stroke-width:0.02226808"
       xml:space="preserve"
       x="53.038715"
       y="86.941902"
       font-style="normal"
       font-weight="bold"
       font-size="96"
       id="text1672">upsdrvctl</text>
    <text
       style="font-style:normal;font-weight:bold;font-size:1.87051868px;font-family:'Helvetica Narrow';text-anchor:start;fill:#ff0000;stroke-width:0.02226808"
       xml:space="preserve"
       x="53.038715"
       y="89.948097"
       font-style="normal"
       font-weight="bold"
       font-size="84"
       id="text1674">+ driver</text>
    <text
       style="font-style:normal;font-weight:bold;font-size:2.13773561px;font-family:'Helvetica Narrow';text-anchor:start;fill:#ff0000;stroke-width:0.02226808"
       xml:space="preserve"
       x="53.038715"
       y="74.917145"
       font-style="normal"
       font-weight="bold"
       font-size="96"
       id="text1676">upsdrvctl</text>
    <text
       style="font-style:normal;font-weight:bold;font-size:1.87051868px;font-family:'Helvetica Narrow';text-anchor:start;fill:#ff0000;stroke-width:0.02226808"
       xml:space="preserve"
       x="53.038715"
       y="77.923332"
       font-style="normal"
       font-weight="bold"
       font-size="84"
       id="text1678">+ driver</text>
    <text
       style="font-style:normal;font-weight:bold;font-size:2.13773561px;font-family:'Helvetica Narrow';text-anchor:start;fill:#ff0000;stroke-width:0.02226808"
       xml:space="preserve"
       x="53.038715"
       y="62.89238"
       font-style="normal"
       font-weight="bold"
       font-size="96"
       id="text1680">upsdrvctl</text>
    <text
       style="font-style:normal;font-weight:bold;font-size:1.87051868px;font-family:'Helvetica Narrow';text-anchor:start;fill:#ff0000;stroke-width:0.02226808"
       xml:space="preserve"
       x="53.038715"
       y="65.898567"
       font-style="normal"
       font-weight="bold"
       font-size="84"
       id="text1682">+ driver</text>
    <text
       style="font-style:normal;font-weight:bold;font-size:3.20660353px;font-family:'Helvetica Narrow';text-anchor:start;fill:#008f00;stroke-width:0.02226808"
       xml:space="preserve"
       x="94.123322"
       y="62.89238"
       font-style="normal"
       font-weight="bold"
       font-size="144"
       id="text1684">upsmon</text>
    <g
       style="fill:none"
       transform="matrix(0,-0.02226808,0.02226808,0,112.16047,104.97905)"
       id="g1688">
      <text
         style="font-style:normal;font-weight:normal;font-size:126.73846436px;font-family:Courier;text-anchor:start;fill:#000000"
         xml:space="preserve"
         x="-142.42038"
         y="136.48621"
         font-style="normal"
         font-weight="normal"
         font-size="60"
         id="text1686">dual.svg</text>
    </g>
    <text
       style="font-style:normal;font-weight:normal;font-size:1.87051868px;font-family:'Helvetica Narrow';text-anchor:start;fill:#008f00;stroke-width:0.02226808"
       xml:space="preserve"
       x="93.121262"
       y="67.902695"
       font-style="normal"
       font-weight="normal"
       font-size="84"
       id="text1690">UPS-1:  [ONLINE]</text>
    <text
       style="font-style:normal;font-weight:normal;font-size:1.87051868px;font-family:'Helvetica Narrow';text-anchor:start;fill:#008f00;stroke-width:0.02226808"
       xml:space="preserve"
       x="93.121262"
       y="73.915077"
       font-style="normal"
       font-weight="normal"
       font-size="84"
       id="text1692">UPS-2:  [LOWBATT]</text>
    <text
       style="font-style:normal;font-weight:normal;font-size:1.87051868px;font-family:'Helvetica Narrow';text-anchor:start;fill:#008f00;stroke-width:0.02226808"
       xml:space="preserve"
       x="93.121262"
       y="79.92746"
       font-style="normal"
       font-weight="normal"
       font-size="84"
       id="text1694">UPS-3:  [NOCOMM]</text>
    <text
       style="font-style:normal;font-weight:normal;font-size:1.87051868px;font-family:'Helvetica Narrow';text-anchor:start;fill:#008f00;stroke-width:0.02226808"
       xml:space="preserve"
       x="93.121262"
       y="85.939842"
       font-style="normal"
       font-weight="normal"
       font-size="84"
       id="text1696">UPS-4:  [ONLINE]</text>
    <text
       style="font-style:normal;font-weight:normal;font-size:1.87051868px;font-family:'Helvetica Narrow';text-anchor:start;fill:#ff0000;stroke-width:0.02226808"
       xml:space="preserve"
       x="56.044907"
       y="106.98318"
       font-style="normal"
       font-weight="normal"
       font-size="84"
       id="text1698">ups.status:  [OL]</text>
    <text
       style="font-style:normal;font-weight:normal;font-size:1.87051868px;font-family:'Helvetica Narrow';text-anchor:start;fill:#ff0000;stroke-width:0.02226808"
       xml:space="preserve"
       x="56.044907"
       y="81.931587"
       font-style="normal"
       font-weight="normal"
       font-size="84"
       id="text1700">ups.status:  [OB  LB]</text>
    <text
       style="font-style:normal;font-weight:normal;font-size:1.87051868px;font-family:'Helvetica Narrow';text-anchor:start;fill:#ff0000;stroke-width:0.02226808"
       xml:space="preserve"
       x="56.044907"
       y="69.906822"
       font-style="normal"
       font-weight="normal"
       font-size="84"
       id="text1702">ups.status:  [OL]</text>
    <text
       style="font-style:normal;font-weight:normal;font-size:1.87051868px;font-family:'Helvetica Narrow';text-anchor:start;fill:#ff0000;stroke-width:0.02226808"
       xml:space="preserve"
       x="56.044907"
       y="93.956352"
       font-style="normal"
       font-weight="normal"
       font-size="84"
       id="text1704">ups.status:  [ ]</text>
  </g>
</svg>
