<?xml version="1.0" encoding="UTF-8" standalone="no"?>
<!-- Created with Inkscape (http://www.inkscape.org/) -->

<svg
   xmlns:dc="http://purl.org/dc/elements/1.1/"
   xmlns:cc="http://creativecommons.org/ns#"
   xmlns:rdf="http://www.w3.org/1999/02/22-rdf-syntax-ns#"
   xmlns:svg="http://www.w3.org/2000/svg"
   xmlns="http://www.w3.org/2000/svg"
   xmlns:sodipodi="http://sodipodi.sourceforge.net/DTD/sodipodi-0.dtd"
   xmlns:inkscape="http://www.inkscape.org/namespaces/inkscape"
   width="148mm"
   height="210mm"
   viewBox="0 0 148 210"
   version="1.1"
   id="SVGRoot"
   inkscape:version="0.92.1 r15371"
   sodipodi:docname="heartbeat.svg">
  <sodipodi:namedview
     id="base"
     pagecolor="#ffffff"
     bordercolor="#666666"
     borderopacity="1.0"
     inkscape:pageopacity="0.0"
     inkscape:pageshadow="2"
     inkscape:zoom="2.0022523"
     inkscape:cx="279.68504"
     inkscape:cy="383.1592"
     inkscape:document-units="mm"
     inkscape:current-layer="layer1"
     showgrid="false"
     inkscape:window-width="1280"
     inkscape:window-height="984"
     inkscape:window-x="0"
     inkscape:window-y="0"
     inkscape:window-maximized="1"
     inkscape:measure-start="0,0"
     inkscape:measure-end="0,0"
     inkscape:snap-object-midpoints="true"
     inkscape:snap-center="true" />
  <defs
     id="defs10">
    <clipPath
       id="cp0">
      <path
         id="path107"
         d="M 123,483 H 5142 V 1905 H 123 z   M 4062,767 4069,796 4148,770 4145,757z"
         clip-rule="evenodd" />
    </clipPath>
    <clipPath
       id="cp1">
      <path
         id="path152"
         d="M 123,483 H 5142 V 1905 H 123 z   M 4062,767 4069,796 4148,770 4145,757z"
         clip-rule="evenodd" />
    </clipPath>
    <defs
       id="defs110">
      <clipPath
         id="clipPath210">
        <path
           style="clip-rule:evenodd"
           inkscape:connector-curvature="0"
           d="M 123,483 H 5142 V 1905 H 123 Z m 3939,284 7,29 79,-26 -3,-13 z"
           id="path208" />
      </clipPath>
    </defs>
    <defs
       id="defs155">
      <clipPath
         id="clipPath235">
        <path
           style="clip-rule:evenodd"
           inkscape:connector-curvature="0"
           d="M 123,483 H 5142 V 1905 H 123 Z m 3939,284 7,29 79,-26 -3,-13 z"
           id="path233" />
      </clipPath>
    </defs>
    <clipPath
       id="cp0-9">
      <path
         id="path492"
         d="M 120,8 H 5277 V 4110 H 120 z   M 3060,2681 3032,2669 3006,2748 3018,2754z   M 3150,2404 3178,2416 3204,2337 3192,2331z"
         clip-rule="evenodd" />
    </clipPath>
    <clipPath
       id="cp1-2">
      <path
         id="path503"
         d="M 120,8 H 5277 V 4110 H 120 z   M 2964,1642 2987,1622 2926,1565 2915,1574z   M 3246,1913 3223,1933 3284,1990 3295,1981z"
         clip-rule="evenodd" />
    </clipPath>
    <polygon
       id="p0"
       points=" 1215,540 1218,537 1224,531 1230,525 1237,518 1246,509 1260,495 1273,482 1280,477  1283,476 1285,475 1292,468 1305,450 1313,436 1320,425 1323,416 1324,410 1324,405  1324,400 1325,394 1330,385 1338,374 1350,360 1364,348 1376,340 1385,335 1393,334  1399,334 1405,334 1411,333 1420,330 1430,323 1440,315 1448,305 1448,298 1442,294  1433,293 1424,291 1420,287 1424,280 1440,270 1457,263 1474,257 1490,253 1504,252  1515,251 1526,251 1537,251 1549,250 1564,248 1581,243 1600,235 1620,225 1639,211  1648,200 1649,192 1644,187 1635,184 1627,180 1622,175 1625,166 1639,152 1665,135  1686,124 1706,114 1724,105 1738,98 1749,93 1756,89 1762,85 1766,83 1771,80 1778,77  1789,73 1804,69 1826,64 1855,58 1892,51 1935,45 1971,41 2007,38 2040,35 2070,33  2096,30 2119,29 2139,27 2156,25 2172,24 2186,22 2201,21 2215,21 2231,20 2249,20  2268,21 2290,23 2314,26 2338,31 2363,37 2385,45 2409,59 2422,74 2426,89 2423,101  2414,112 2402,122 2389,131 2375,141 2361,151 2350,162 2341,176 2336,191 2336,208  2340,225 2349,242 2360,253 2371,260 2380,263 2389,263 2396,262 2404,261 2413,260  2425,261 2439,263 2456,266 2475,270 2500,274 2514,275 2520,273 2520,270 2520,267  2526,265 2540,266 2565,270 2587,275 2605,279 2617,282 2624,284 2629,285 2634,286  2641,289 2654,294 2674,303 2700,315 2722,326 2740,336 2754,343 2764,348 2770,351  2775,353 2780,354 2786,358 2794,364 2805,373 2819,387 2835,405 2849,424 2859,440  2867,452 2873,460 2877,465 2880,469 2883,473 2885,478 2886,487 2887,500 2885,518  2880,540 2871,562 2859,580 2847,594 2836,604 2826,610 2816,615 2806,620 2796,626  2784,634 2771,645 2758,659 2745,675 2733,694 2730,704 2734,708 2741,709 2749,709  2753,710 2753,714 2745,720 2732,724 2720,725 2709,723 2700,720 2691,717 2680,715  2668,716 2655,720 2652,721 2650,723 2649,725 2648,726 2648,728 2649,730 2651,731  2653,733 2656,734 2660,735 2664,737 2669,738 2673,739 2679,740 2684,741 2689,743  2694,744 2699,745 2703,746 2707,747 2710,748 2712,750 2714,751 2714,752 2713,754  2711,755 2706,757 2700,759 2692,760 2682,762 2669,764 2655,765 2631,767 2605,768  2578,768 2552,768 2527,766 2505,764 2484,761 2464,758 2446,754 2428,750 2411,746  2394,742 2377,739 2358,736 2338,734 2317,733 2294,733 2268,735 2242,739 2214,745  2186,754 2160,765 2133,781 2112,799 2098,817 2090,833 2087,849 2088,863 2091,876  2097,888 2104,900 2111,912 2118,924 2124,937 2128,951 2130,967 2130,983 2127,1001  2122,1019 2115,1035 2109,1046 2103,1055 2097,1062 2091,1067 2086,1070 2082,1072  2078,1072 2075,1072 2072,1072 2069,1070 2066,1069 2064,1067 2061,1065 2058,1063  2055,1061 2051,1058 2048,1055 2043,1053 2039,1049 2034,1045 2029,1041 2025,1035  2018,1020 2015,1006 2015,994 2018,986 2021,979 2025,971 2028,961 2029,947 2028,926  2025,900 2022,883 2020,868 2019,856 2020,845 2023,837 2027,831 2031,826 2036,821  2041,817 2044,812 2045,807 2043,801 2036,793 2024,784 2005,774 1980,765 1956,759  1931,754 1906,751 1883,750 1862,749 1842,750 1825,751 1810,753 1795,755 1781,758  1767,760 1753,762 1737,765 1719,767 1700,768 1678,769 1654,769 1628,768 1601,767  1575,765 1533,760 1509,755 1502,750 1506,746 1515,742 1525,739 1531,735 1527,730  1512,725 1485,720 1462,717 1439,716 1420,716 1403,717 1390,719 1379,721 1369,724  1359,726 1348,729 1335,730 1319,730 1301,729 1280,725 1260,720 1243,713 1230,705  1222,699 1218,693 1216,687 1217,683 1219,679 1221,675 1223,670 1223,664 1223,657  1221,649 1218,640 1215,630 1210,612 1210,605 1211,604 1213,603 1215,598 1215,585  1215,572 1213,565 1211,562 1210,560 1210,553 1215,540 1224,526 1233,517 1241,510  1249,504 1256,498 1260,495 1256,499 1247,508 1237,518 1228,527 1219,536" />
    <pattern
       height="402"
       width="402"
       y="0"
       x="0"
       patternUnits="userSpaceOnUse"
       id="tile0">
      <g
         id="g519"
         fill="none"
         stroke="#ffd600"
         stroke-width="7.5">
        <path
           id="path517"
           d="M30,-1 V403 M164,-1 V403 M298,-1 V403 M30,164 l134,67 M164,30 l134,67 M298,298 l120,60 M30,365 l-40,-20" />
      </g>
    </pattern>
    <clipPath
       id="cp2">
      <path
         id="path614"
         d="M 120,8 H 5277 V 4110 H 120 z   M 4288,2937 4299,2965 4374,2929 4369,2916z   M 3246,1913 3223,1933 3284,1990 3295,1981z"
         clip-rule="evenodd" />
    </clipPath>
    <clipPath
       id="cp3">
      <path
         id="path681"
         d="M 120,8 H 5277 V 4110 H 120 z   M 4288,2937 4299,2965 4374,2929 4369,2916z   M 3246,1913 3223,1933 3284,1990 3295,1981z"
         clip-rule="evenodd" />
    </clipPath>
    <defs
       id="defs495">
      <clipPath
         id="clipPath737">
        <path
           style="clip-rule:evenodd"
           inkscape:connector-curvature="0"
           d="M 120,8 H 5277 V 4110 H 120 Z m 2940,2673 -28,-12 -26,79 12,6 z m 90,-277 28,12 26,-79 -12,-6 z"
           id="path735" />
      </clipPath>
    </defs>
    <defs
       id="defs506">
      <clipPath
         id="clipPath745">
        <path
           style="clip-rule:evenodd"
           inkscape:connector-curvature="0"
           d="M 120,8 H 5277 V 4110 H 120 Z m 2844,1634 23,-20 -61,-57 -11,9 z m 282,271 -23,20 61,57 11,-9 z"
           id="path743" />
      </clipPath>
    </defs>
    <defs
       id="defs522">
      <polygon
         points="1237,518 1246,509 1260,495 1273,482 1280,477 1283,476 1285,475 1292,468 1305,450 1313,436 1320,425 1323,416 1324,410 1324,405 1324,400 1325,394 1330,385 1338,374 1350,360 1364,348 1376,340 1385,335 1393,334 1399,334 1405,334 1411,333 1420,330 1430,323 1440,315 1448,305 1448,298 1442,294 1433,293 1424,291 1420,287 1424,280 1440,270 1457,263 1474,257 1490,253 1504,252 1515,251 1526,251 1537,251 1549,250 1564,248 1581,243 1600,235 1620,225 1639,211 1648,200 1649,192 1644,187 1635,184 1627,180 1622,175 1625,166 1639,152 1665,135 1686,124 1706,114 1724,105 1738,98 1749,93 1756,89 1762,85 1766,83 1771,80 1778,77 1789,73 1804,69 1826,64 1855,58 1892,51 1935,45 1971,41 2007,38 2040,35 2070,33 2096,30 2119,29 2139,27 2156,25 2172,24 2186,22 2201,21 2215,21 2231,20 2249,20 2268,21 2290,23 2314,26 2338,31 2363,37 2385,45 2409,59 2422,74 2426,89 2423,101 2414,112 2402,122 2389,131 2375,141 2361,151 2350,162 2341,176 2336,191 2336,208 2340,225 2349,242 2360,253 2371,260 2380,263 2389,263 2396,262 2404,261 2413,260 2425,261 2439,263 2456,266 2475,270 2500,274 2514,275 2520,273 2520,270 2520,267 2526,265 2540,266 2565,270 2587,275 2605,279 2617,282 2624,284 2629,285 2634,286 2641,289 2654,294 2674,303 2700,315 2722,326 2740,336 2754,343 2764,348 2770,351 2775,353 2780,354 2786,358 2794,364 2805,373 2819,387 2835,405 2849,424 2859,440 2867,452 2873,460 2877,465 2880,469 2883,473 2885,478 2886,487 2887,500 2885,518 2880,540 2871,562 2859,580 2847,594 2836,604 2826,610 2816,615 2806,620 2796,626 2784,634 2771,645 2758,659 2745,675 2733,694 2730,704 2734,708 2741,709 2749,709 2753,710 2753,714 2745,720 2732,724 2720,725 2709,723 2700,720 2691,717 2680,715 2668,716 2655,720 2652,721 2650,723 2649,725 2648,726 2648,728 2649,730 2651,731 2653,733 2656,734 2660,735 2664,737 2669,738 2673,739 2679,740 2684,741 2689,743 2694,744 2699,745 2703,746 2707,747 2710,748 2712,750 2714,751 2714,752 2713,754 2711,755 2706,757 2700,759 2692,760 2682,762 2669,764 2655,765 2631,767 2605,768 2578,768 2552,768 2527,766 2505,764 2484,761 2464,758 2446,754 2428,750 2411,746 2394,742 2377,739 2358,736 2338,734 2317,733 2294,733 2268,735 2242,739 2214,745 2186,754 2160,765 2133,781 2112,799 2098,817 2090,833 2087,849 2088,863 2091,876 2097,888 2104,900 2111,912 2118,924 2124,937 2128,951 2130,967 2130,983 2127,1001 2122,1019 2115,1035 2109,1046 2103,1055 2097,1062 2091,1067 2086,1070 2082,1072 2078,1072 2075,1072 2072,1072 2069,1070 2066,1069 2064,1067 2061,1065 2058,1063 2055,1061 2051,1058 2048,1055 2043,1053 2039,1049 2034,1045 2029,1041 2025,1035 2018,1020 2015,1006 2015,994 2018,986 2021,979 2025,971 2028,961 2029,947 2028,926 2025,900 2022,883 2020,868 2019,856 2020,845 2023,837 2027,831 2031,826 2036,821 2041,817 2044,812 2045,807 2043,801 2036,793 2024,784 2005,774 1980,765 1956,759 1931,754 1906,751 1883,750 1862,749 1842,750 1825,751 1810,753 1795,755 1781,758 1767,760 1753,762 1737,765 1719,767 1700,768 1678,769 1654,769 1628,768 1601,767 1575,765 1533,760 1509,755 1502,750 1506,746 1515,742 1525,739 1531,735 1527,730 1512,725 1485,720 1462,717 1439,716 1420,716 1403,717 1390,719 1379,721 1369,724 1359,726 1348,729 1335,730 1319,730 1301,729 1280,725 1260,720 1243,713 1230,705 1222,699 1218,693 1216,687 1217,683 1219,679 1221,675 1223,670 1223,664 1223,657 1221,649 1218,640 1215,630 1210,612 1210,605 1211,604 1213,603 1215,598 1215,585 1215,572 1213,565 1211,562 1210,560 1210,553 1215,540 1224,526 1233,517 1241,510 1249,504 1256,498 1260,495 1256,499 1247,508 1237,518 1228,527 1219,536 1215,540 1218,537 1224,531 1230,525 "
         id="polygon752" />
      <pattern
         id="pattern758"
         patternUnits="userSpaceOnUse"
         x="0"
         y="0"
         width="402"
         height="402">
        <g
           stroke-width="7.5"
           stroke="#ffd600"
           fill="none"
           id="g756">
          <path
             d="M30,-1 V403 M164,-1 V403 M298,-1 V403 M30,164 l134,67 M164,30 l134,67 M298,298 l120,60 M30,365 l-40,-20"
             id="path754" />
        </g>
      </pattern>
    </defs>
    <defs
       id="defs617">
      <clipPath
         id="clipPath808">
        <path
           style="clip-rule:evenodd"
           inkscape:connector-curvature="0"
           d="M 120,8 H 5277 V 4110 H 120 Z m 4168,2929 11,28 75,-36 -5,-13 z m -1042,-1024 -23,20 61,57 11,-9 z"
           id="path806" />
      </clipPath>
    </defs>
    <defs
       id="defs684">
      <clipPath
         id="clipPath844">
        <path
           style="clip-rule:evenodd"
           inkscape:connector-curvature="0"
           d="M 120,8 H 5277 V 4110 H 120 Z m 4168,2929 11,28 75,-36 -5,-13 z m -1042,-1024 -23,20 61,57 11,-9 z"
           id="path842" />
      </clipPath>
    </defs>
    <clipPath
       id="cp0-8">
      <path
         id="path1253"
         d="M 378,618 H 2647 V 2667 H 378 z   M 1410,1949 1380,1949 1388,2032 1402,2032z   M 1380,784 1410,784 1402,713 1388,713z"
         clip-rule="evenodd" />
    </clipPath>
    <clipPath
       id="cp1-7">
      <path
         id="path1270"
         d="M 378,618 H 2647 V 2667 H 378 z   M 420,2579 390,2579 398,2662 412,2662z   M 390,784 420,784 412,713 398,713z"
         clip-rule="evenodd" />
    </clipPath>
    <clipPath
       id="cp2-1">
      <path
         id="path1281"
         d="M 378,618 H 2647 V 2667 H 378 z   M 1859,888 1825,859 1763,955 1774,964z   M 390,784 420,784 412,713 398,713z"
         clip-rule="evenodd" />
    </clipPath>
    <defs
       id="defs1256">
      <clipPath
         id="clipPath1358">
        <path
           style="clip-rule:evenodd"
           inkscape:connector-curvature="0"
           d="M 378,618 H 2647 V 2667 H 378 Z m 1032,1331 h -30 l 8,83 h 14 z M 1380,784 h 30 l -8,-71 h -14 z"
           id="path1356" />
      </clipPath>
    </defs>
    <defs
       id="defs1273">
      <clipPath
         id="clipPath1369">
        <path
           style="clip-rule:evenodd"
           inkscape:connector-curvature="0"
           d="M 378,618 H 2647 V 2667 H 378 Z m 42,1961 h -30 l 8,83 h 14 z M 390,784 h 30 l -8,-71 h -14 z"
           id="path1367" />
      </clipPath>
    </defs>
    <defs
       id="defs1284">
      <clipPath
         id="clipPath1377">
        <path
           style="clip-rule:evenodd"
           inkscape:connector-curvature="0"
           d="M 378,618 H 2647 V 2667 H 378 Z m 1481,270 -34,-29 -62,96 11,9 z M 390,784 h 30 l -8,-71 h -14 z"
           id="path1375" />
      </clipPath>
    </defs>
    <clipPath
       id="cp0-7">
      <path
         id="path1978"
         d="M 123,483 H 5097 V 2037 H 123 z   M 4062,767 4069,796 4148,770 4145,757z"
         clip-rule="evenodd" />
    </clipPath>
    <clipPath
       id="cp1-27">
      <path
         id="path2025"
         d="M 123,483 H 5097 V 2037 H 123 z   M 4062,767 4069,796 4148,770 4145,757z"
         clip-rule="evenodd" />
    </clipPath>
    <defs
       id="defs1981">
      <clipPath
         id="clipPath2084">
        <path
           style="clip-rule:evenodd"
           inkscape:connector-curvature="0"
           d="M 123,483 H 5097 V 2037 H 123 Z m 3939,284 7,29 79,-26 -3,-13 z"
           id="path2082" />
      </clipPath>
    </defs>
    <defs
       id="defs2028">
      <clipPath
         id="clipPath2110">
        <path
           style="clip-rule:evenodd"
           inkscape:connector-curvature="0"
           d="M 123,483 H 5097 V 2037 H 123 Z m 3939,284 7,29 79,-26 -3,-13 z"
           id="path2108" />
      </clipPath>
    </defs>
  </defs>
  <metadata
     id="metadata13">
    <rdf:RDF>
      <cc:Work
         rdf:about="">
        <dc:format>image/svg+xml</dc:format>
        <dc:type
           rdf:resource="http://purl.org/dc/dcmitype/StillImage" />
        <dc:title></dc:title>
      </cc:Work>
    </rdf:RDF>
  </metadata>
  <g
     id="layer1"
     inkscape:groupmode="layer"
     inkscape:label="Layer 1">
    <polyline
       style="fill:#8f008f;stroke:#8f008f;stroke-width:8px;stroke-miterlimit:8"
       points=""
       stroke-miterlimit="8"
       id="polyline159"
       transform="matrix(0.02228144,0,0,0.02228144,8.4011446,43.811523)" />
    <polyline
       style="fill:#8f008f;stroke:#8f008f;stroke-width:8px;stroke-miterlimit:8"
       points=""
       stroke-miterlimit="8"
       id="polyline688"
       transform="matrix(0.02223246,0,0,0.02223246,11.408567,57.986033)" />
    <rect
       style="fill:#d8d8d8;stroke:#ffffff;stroke-width:0.17797799px;stroke-dasharray:0.88989, 0.88989"
       x="42.788448"
       y="57.666565"
       width="86.096855"
       height="34.038292"
       id="rect1914" />
    <polyline
       style="fill:none;stroke:#000000;stroke-width:8px"
       points=" 135,720 1215,720"
       id="polyline1916"
       transform="matrix(0.02224725,0,0,0.02224725,15.75804,46.654177)" />
    <polyline
       style="fill:none;stroke:#000000;stroke-width:8px"
       points=" 135,765 1215,765"
       id="polyline1918"
       transform="matrix(0.02224725,0,0,0.02224725,15.75804,46.654177)" />
    <polyline
       style="fill:none;stroke:#000000;stroke-width:8px"
       points=" 135,675 1215,675"
       id="polyline1920"
       transform="matrix(0.02224725,0,0,0.02224725,15.75804,46.654177)" />
    <rect
       style="fill:#ffffff;stroke:#ff0000;stroke-width:0.17797799px"
       x="46.792953"
       y="59.668819"
       width="24.027031"
       height="27.030409"
       id="rect1922" />
    <polygon
       style="fill:#ff0000;stroke:#ff0000;stroke-width:8px;stroke-linejoin:bevel"
       points="639,1414 639,1416 640,1418 640,1419 639,1420 639,1421 638,1421 638,1422 637,1422 636,1422 635,1422 634,1422 632,1422 631,1422 630,1421 629,1421 628,1421 626,1420 625,1420 624,1419 623,1418 622,1418 622,1417 621,1416 621,1415 620,1414 620,1413 621,1411 621,1410 622,1408 623,1406 624,1404 626,1401 628,1398 630,1395 638,1382 646,1369 653,1356 658,1344 661,1334 664,1324 667,1314 671,1304 678,1293 688,1281 702,1269 720,1260 739,1255 756,1253 769,1254 780,1255 788,1257 795,1260 802,1263 809,1267 819,1273 830,1281 843,1291 855,1305 863,1318 869,1331 873,1341 875,1349 877,1354 877,1358 878,1361 877,1365 877,1369 875,1376 873,1386 869,1400 863,1418 855,1440 844,1462 834,1482 824,1498 816,1510 809,1519 804,1525 799,1530 794,1535 788,1541 780,1550 769,1562 756,1578 739,1598 720,1620 698,1645 680,1666 667,1683 658,1696 653,1706 649,1714 645,1721 640,1729 632,1737 620,1745 604,1752 585,1755 570,1753 557,1747 548,1740 542,1733 539,1727 537,1720 536,1714 536,1707 534,1699 531,1689 526,1676 518,1661 507,1642 495,1620 482,1598 471,1578 462,1562 455,1551 450,1543 446,1538 442,1534 439,1530 436,1524 431,1516 426,1504 419,1487 412,1465 405,1440 399,1411 394,1386 391,1368 389,1355 388,1346 386,1339 385,1332 385,1324 387,1313 390,1298 396,1280 405,1260 414,1247 424,1236 433,1228 441,1222 449,1217 455,1213 460,1210 465,1208 470,1206 476,1204 483,1203 491,1202 501,1202 512,1204 526,1208 540,1215 555,1226 568,1240 578,1254 585,1267 590,1279 594,1290 596,1301 599,1312 601,1324 605,1336 610,1350 616,1365 623,1381 630,1395 632,1399 634,1403 636,1406 637,1409 638,1412 "
       id="polygon1924"
       transform="matrix(0.02224725,0,0,0.02224725,15.75804,46.654177)" />
    <polyline
       style="fill:none;stroke:#000000;stroke-width:8px"
       points=" 2475,1080 2880,1080"
       id="polyline1926"
       transform="matrix(0.02224725,0,0,0.02224725,15.75804,46.654177)" />
    <polyline
       style="fill:none;stroke:#000000;stroke-width:8px"
       points=" 2880,765 3105,765"
       id="polyline1928"
       transform="matrix(0.02224725,0,0,0.02224725,15.75804,46.654177)" />
    <polyline
       style="fill:none;stroke:#000000;stroke-width:8px"
       points=" 2880,1215 3105,1215"
       id="polyline1930"
       transform="matrix(0.02224725,0,0,0.02224725,15.75804,46.654177)" />
    <polyline
       style="fill:none;stroke:#000000;stroke-width:8px"
       points=" 2880,1800 2880,585"
       id="polyline1932"
       transform="matrix(0.02224725,0,0,0.02224725,15.75804,46.654177)" />
    <polyline
       style="fill:none;stroke:#000000;stroke-width:8px"
       points=" 2880,1665 3105,1665"
       id="polyline1934"
       transform="matrix(0.02224725,0,0,0.02224725,15.75804,46.654177)" />
    <polyline
       style="fill:none;stroke:#000000;stroke-width:8px"
       points=" 2880,1440 3105,1440"
       id="polyline1936"
       transform="matrix(0.02224725,0,0,0.02224725,15.75804,46.654177)" />
    <polyline
       style="fill:none;stroke:#ff0000;stroke-width:8px"
       points=" 900,810 1260,855"
       id="polyline1938"
       transform="matrix(0.02224725,0,0,0.02224725,15.75804,46.654177)" />
    <polyline
       style="fill:none;stroke:#ff0000;stroke-width:8px"
       points=" 855,1395 1260,1350"
       id="polyline1940"
       transform="matrix(0.02224725,0,0,0.02224725,15.75804,46.654177)" />
    <text
       style="font-style:normal;font-weight:normal;font-size:2.6696701px;font-family:'Helvetica Narrow';text-anchor:start;fill:#ff0000;stroke-width:0.02224725"
       xml:space="preserve"
       x="71.821114"
       y="69.680084"
       font-style="normal"
       font-weight="normal"
       font-size="120"
       id="text1942">port</text>
    <text
       style="font-style:normal;font-weight:normal;font-size:2.13573599px;font-family:'Helvetica Narrow';text-anchor:start;fill:#ff0000;stroke-width:0.02224725"
       xml:space="preserve"
       x="71.821114"
       y="74.352005"
       font-style="normal"
       font-weight="normal"
       font-size="96"
       id="text1944">3493</text>
    <text
       style="font-style:normal;font-weight:bold;font-size:3.20360398px;font-family:'Helvetica Narrow';text-anchor:start;fill:#ff0000;stroke-width:0.02224725"
       xml:space="preserve"
       x="61.809849"
       y="64.674446"
       font-style="normal"
       font-weight="bold"
       font-size="144"
       id="text1946">upsd</text>
    <text
       style="font-style:normal;font-weight:normal;font-size:2.6696701px;font-family:'Helvetica Narrow';text-anchor:start;fill:#ffffff;stroke-width:0.02224725"
       xml:space="preserve"
       x="26.77043"
       y="80.692467"
       font-style="normal"
       font-weight="normal"
       font-size="120"
       id="text1948">10m</text>
    <text
       style="font-style:normal;font-weight:normal;font-size:2.40270305px;font-family:'Helvetica Narrow';text-anchor:start;fill:#ff0000;stroke-width:0.02224725"
       xml:space="preserve"
       x="20.763672"
       y="88.701477"
       font-style="normal"
       font-weight="normal"
       font-size="108"
       id="text1950">heartbeat.conf</text>
    <rect
       style="fill:#ffffff;stroke:#0000ff;stroke-width:0.17797799px"
       x="107.86166"
       y="58.66769"
       width="17.019146"
       height="10.011263"
       id="rect1952" />
    <rect
       style="fill:#ffffff;stroke:#008f00;stroke-width:0.17797799px"
       x="84.835754"
       y="58.66769"
       width="16.018021"
       height="10.011263"
       id="rect1954" />
    <rect
       style="fill:#ffffff;stroke:#8f008f;stroke-width:0.17797799px"
       x="106.86053"
       y="72.683456"
       width="19.021399"
       height="14.015767"
       rx="2.3359613"
       id="rect1956" />
    <polygon
       style="fill:#cccccc;stroke:#000000;stroke-width:8px"
       points="900,540 450,540 450,990 405,990 405,1035 945,1035 945,990 900,990 "
       id="polygon1958"
       transform="matrix(0.02224725,0,0,0.02224725,15.75804,46.654177)" />
    <rect
       style="fill:#ffffff;stroke:#ff0000;stroke-width:0.17797799px"
       x="43.789574"
       y="73.684586"
       width="14.015767"
       height="8.0090103"
       id="rect1960" />
    <rect
       style="fill:#ffffff;stroke:#ff0000;stroke-width:0.17797799px"
       x="43.789574"
       y="61.67107"
       width="14.015767"
       height="8.0090103"
       id="rect1962" />
    <text
       style="font-style:normal;font-weight:normal;font-size:1.60180199px;font-family:'Helvetica Narrow';text-anchor:start;fill:#0000ff;stroke-width:0.02224725"
       xml:space="preserve"
       x="109.86391"
       y="66.676704"
       font-style="normal"
       font-weight="normal"
       font-size="72"
       id="text1964">CMDSCRIPT</text>
    <rect
       style="fill:#ffffff;stroke:#ff0000;stroke-width:0.17797799px"
       x="84.835754"
       y="71.682335"
       width="13.014641"
       height="4.0045052"
       rx="2.3359613"
       id="rect1966" />
    <rect
       style="fill:#ffffff;stroke:#ff0000;stroke-width:0.17797799px"
       x="84.835754"
       y="76.687965"
       width="13.014641"
       height="4.0045052"
       rx="2.3359613"
       id="rect1968" />
    <rect
       style="fill:#ffffff;stroke:#ff0000;stroke-width:0.17797799px"
       x="84.835754"
       y="81.693596"
       width="14.015767"
       height="4.0045052"
       rx="2.3359613"
       id="rect1970" />
    <polyline
       style="fill:none;stroke:#8f008f;stroke-width:8px"
       points=" 4095,1395 4950,1395"
       id="polyline1972"
       transform="matrix(0.02224725,0,0,0.02224725,15.75804,46.654177)" />
    <polygon
       style="fill:#8f008f;stroke:#8f008f;stroke-width:8px;stroke-linejoin:bevel"
       points="4581,1573 4581,1574 4581,1575 4581,1576 4581,1577 4580,1578 4579,1578 4578,1578 4577,1578 4576,1578 4575,1577 4574,1577 4573,1577 4572,1576 4571,1576 4570,1576 4570,1575 4569,1575 4569,1574 4569,1573 4569,1572 4569,1571 4569,1570 4570,1569 4570,1567 4571,1566 4572,1564 4574,1562 4575,1560 4582,1550 4588,1539 4592,1529 4595,1520 4598,1512 4600,1505 4604,1496 4611,1487 4621,1478 4635,1470 4650,1466 4663,1465 4672,1466 4679,1468 4685,1470 4690,1473 4697,1476 4705,1482 4715,1489 4725,1500 4731,1510 4735,1520 4738,1527 4739,1532 4740,1535 4740,1538 4740,1540 4739,1544 4738,1550 4735,1560 4731,1573 4725,1590 4717,1607 4708,1622 4701,1634 4696,1642 4691,1648 4687,1653 4684,1657 4678,1663 4672,1670 4662,1681 4650,1695 4635,1710 4618,1726 4605,1738 4596,1746 4591,1752 4587,1755 4584,1758 4580,1761 4572,1765 4560,1768 4545,1770 4531,1768 4521,1765 4516,1761 4513,1758 4512,1755 4512,1752 4510,1746 4505,1738 4496,1726 4485,1710 4474,1692 4464,1677 4458,1666 4453,1660 4450,1655 4447,1650 4443,1643 4438,1631 4432,1613 4425,1590 4420,1567 4417,1549 4415,1536 4414,1528 4412,1522 4412,1517 4412,1510 4414,1500 4418,1486 4425,1470 4432,1460 4439,1453 4446,1447 4452,1442 4457,1439 4461,1437 4465,1435 4469,1434 4473,1432 4479,1432 4486,1431 4494,1432 4504,1435 4515,1440 4529,1451 4539,1464 4546,1476 4550,1487 4553,1498 4555,1508 4558,1519 4562,1532 4568,1546 4575,1560 4576,1563 4578,1565 4579,1568 4580,1570 4580,1571 "
       id="polygon1974"
       transform="matrix(0.02224725,0,0,0.02224725,15.75804,46.654177)" />
    <circle
       style="fill:#00d100;stroke:#008f00;stroke-width:0.17797799px"
       cx="33.778313"
       cy="59.668819"
       r="0.51168674"
       id="circle1976" />
    <polyline
       style="fill:none;stroke:#0000ff;stroke-width:8px"
       points=" 3735,855 4140,765"
       clip-path="url(#cp0-7)"
       id="polyline1983"
       transform="matrix(0.02224725,0,0,0.02224725,15.75804,46.654177)" />
    <polygon
       style="fill:#0000ff;stroke:#0000ff;stroke-width:8px;stroke-miterlimit:8"
       points="4069,796 4124,769 4062,767 "
       stroke-miterlimit="8"
       id="polygon1985"
       transform="matrix(0.02224725,0,0,0.02224725,15.75804,46.654177)" />
    <polyline
       style="fill:none;stroke:#000000;stroke-width:8px;stroke-linejoin:bevel"
       points=" 180,585 181,584 184,577 191,565 200,553 211,544 225,540 238,543 245,549 248,555  250,562 257,571 270,585 283,599 290,608 293,615 295,621 302,627 315,630 329,626  340,617 349,605 356,593 359,586 360,585"
       id="polyline1987"
       transform="matrix(0.02224725,0,0,0.02224725,15.75804,46.654177)" />
    <text
       style="font-style:normal;font-weight:bold;font-size:2.6696701px;font-family:'Helvetica Narrow';text-anchor:start;fill:#ff0000;stroke-width:0.02224725"
       xml:space="preserve"
       x="85.836876"
       y="74.685715"
       font-style="normal"
       font-weight="bold"
       font-size="120"
       id="text1989">upsc</text>
    <text
       style="font-style:normal;font-weight:bold;font-size:2.6696701px;font-family:'Helvetica Narrow';text-anchor:start;fill:#ff0000;stroke-width:0.02224725"
       xml:space="preserve"
       x="85.836876"
       y="79.691345"
       font-style="normal"
       font-weight="bold"
       font-size="120"
       id="text1991">upsrw</text>
    <text
       style="font-style:normal;font-weight:bold;font-size:2.6696701px;font-family:'Helvetica Narrow';text-anchor:start;fill:#ff0000;stroke-width:0.02224725"
       xml:space="preserve"
       x="85.836876"
       y="84.696976"
       font-style="normal"
       font-weight="bold"
       font-size="120"
       id="text1993">upscom</text>
    <text
       style="font-style:normal;font-weight:bold;font-size:2.6696701px;font-family:'Helvetica Narrow';text-anchor:start;fill:#0000ff;stroke-width:0.02224725"
       xml:space="preserve"
       x="108.86278"
       y="62.672195"
       font-style="normal"
       font-weight="bold"
       font-size="120"
       id="text1995">upssched</text>
    <text
       style="font-style:normal;font-weight:bold;font-size:2.93663692px;font-family:'Helvetica Narrow';text-anchor:start;fill:#008f00;stroke-width:0.02224725"
       xml:space="preserve"
       x="85.836876"
       y="62.672195"
       font-style="normal"
       font-weight="bold"
       font-size="132"
       id="text1997">upsmon</text>
    <text
       style="font-style:normal;font-weight:normal;font-size:2.6696701px;font-family:'Helvetica Narrow';text-anchor:start;fill:#ffffff;stroke-width:0.02224725"
       xml:space="preserve"
       x="114.86954"
       y="83.695847"
       font-style="normal"
       font-weight="normal"
       font-size="120"
       id="text1999">11m</text>
    <text
       style="font-style:normal;font-weight:normal;font-size:2.13573599px;font-family:'Helvetica Narrow';text-anchor:start;fill:#8f008f;stroke-width:0.02224725"
       xml:space="preserve"
       x="107.86166"
       y="76.687965"
       font-style="normal"
       font-weight="normal"
       font-size="96"
       id="text2001">upssched-cmd</text>
    <text
       style="font-style:normal;font-weight:normal;font-size:1.86876905px;font-family:Courier;text-anchor:start;fill:#000000;stroke-width:0.02224725"
       xml:space="preserve"
       x="107.86166"
       y="85.698097"
       font-style="normal"
       font-weight="normal"
       font-size="84"
       id="text2003">...</text>
    <text
       style="font-style:normal;font-weight:normal;font-size:1.86876905px;font-family:Courier;text-anchor:start;fill:#000000;stroke-width:0.02224725"
       xml:space="preserve"
       x="107.86166"
       y="80.692467"
       font-style="normal"
       font-weight="normal"
       font-size="84"
       id="text2005">...</text>
    <text
       style="font-style:normal;font-weight:bold;font-size:2.13573599px;font-family:'Helvetica Narrow';text-anchor:start;fill:#000000;stroke-width:0.02224725"
       xml:space="preserve"
       x="26.77043"
       y="65.675575"
       font-style="normal"
       font-weight="bold"
       font-size="96"
       id="text2007">UPS-1</text>
    <text
       style="font-style:normal;font-weight:bold;font-size:2.13573599px;font-family:'Helvetica Narrow';text-anchor:start;fill:#ff0000;stroke-width:0.02224725"
       xml:space="preserve"
       x="44.790703"
       y="76.687965"
       font-style="normal"
       font-weight="bold"
       font-size="96"
       id="text2009">upsdrvctl</text>
    <text
       style="font-style:normal;font-weight:bold;font-size:2.13573599px;font-family:'Helvetica Narrow';text-anchor:start;fill:#ff0000;stroke-width:0.02224725"
       xml:space="preserve"
       x="44.790703"
       y="79.691345"
       font-style="normal"
       font-weight="bold"
       font-size="96"
       id="text2011">+ driver</text>
    <text
       style="font-style:normal;font-weight:bold;font-size:2.13573599px;font-family:'Helvetica Narrow';text-anchor:start;fill:#ff0000;stroke-width:0.02224725"
       xml:space="preserve"
       x="44.790703"
       y="64.674446"
       font-style="normal"
       font-weight="bold"
       font-size="96"
       id="text2013">upsdrvctl</text>
    <text
       style="font-style:normal;font-weight:bold;font-size:2.13573599px;font-family:'Helvetica Narrow';text-anchor:start;fill:#ff0000;stroke-width:0.02224725"
       xml:space="preserve"
       x="44.790703"
       y="67.677826"
       font-style="normal"
       font-weight="bold"
       font-size="96"
       id="text2015">+ driver</text>
    <text
       style="font-style:normal;font-weight:normal;font-size:1.86876905px;font-family:'Helvetica Narrow';text-anchor:start;fill:#ff0000;stroke-width:0.02224725"
       xml:space="preserve"
       x="50.797459"
       y="84.696976"
       font-style="normal"
       font-weight="normal"
       font-size="84"
       id="text2017">[OL] / [OB] / [OL] ...</text>
    <text
       style="font-style:normal;font-weight:normal;font-size:1.86876905px;font-family:'Helvetica Narrow';text-anchor:start;fill:#ff0000;stroke-width:0.02224725"
       xml:space="preserve"
       x="58.806469"
       y="80.692467"
       font-style="normal"
       font-weight="normal"
       font-size="84"
       id="text2019">ups.status:</text>
    <text
       style="font-style:normal;font-weight:normal;font-size:1.86876905px;font-family:'Helvetica Narrow';text-anchor:start;fill:#ff0000;stroke-width:0.02224725"
       xml:space="preserve"
       x="53.800838"
       y="71.682335"
       font-style="normal"
       font-weight="normal"
       font-size="84"
       id="text2021">ups.status:  [OL]</text>
    <text
       style="font-style:normal;font-weight:normal;font-size:2.11666667px;font-family:Courier;text-anchor:start;fill:#000000;stroke-width:0.02224725;"
       xml:space="preserve"
       x="43.789574"
       y="89.702606"
       font-style="normal"
       font-weight="normal"
       font-size="60"
       id="text2023">heartbeat.svg</text>
    <polyline
       style="fill:none;stroke:#8f008f;stroke-width:8px;stroke-linejoin:bevel"
       points=" 4770,855 4772,855 4776,855 4783,856 4791,856 4801,858 4811,860 4822,864 4832,869  4842,876 4852,886 4860,900 4867,919 4872,935 4874,946 4875,954 4875,960 4875,966  4874,975 4872,989 4867,1009 4860,1035 4852,1057 4842,1077 4832,1094 4822,1110  4811,1124 4801,1136 4791,1147 4770,1170"
       clip-path="url(#cp1-27)"
       id="polyline2030"
       transform="matrix(0.02224725,0,0,0.02224725,15.75804,46.654177)" />
    <polyline
       style="fill:#8f008f;stroke:#8f008f;stroke-width:8px;stroke-miterlimit:8"
       points=""
       stroke-miterlimit="8"
       id="polyline2032"
       transform="matrix(0.02224725,0,0,0.02224725,15.75804,46.654177)" />
    <text
       style="font-style:normal;font-weight:normal;font-size:1.60180199px;font-family:'Helvetica Narrow';text-anchor:start;fill:#008f00;stroke-width:0.02224725"
       xml:space="preserve"
       x="86.838005"
       y="66.676704"
       font-style="normal"
       font-weight="normal"
       font-size="72"
       id="text2034">NOTIFYCMD</text>
  </g>
</svg>
